<svg viewBox="0 0 150 67" xmlns="http://www.w3.org/2000/svg" fill="none"><path fill="#000" d="M13.86 17.014h8.81v14.431c-2.941.596-5.194.898-7.664.898-9.663 0-13.07-5.536-13.07-14.648 0-9.794 4.724-15.33 14.138-15.33 1.193 0 3.446.085 6.256.511v9.237h-2.044l-1.154-3.53c-1.107-3.361-2.423-5.026-4.513-5.026-3.616 0-5.536 4.894-5.536 14.053 0 9.198.766 13.54 5.49 13.54.642 0 1.4-.084 2.128-.293V20.118l-2.849-1.959v-1.145h.008Zm8.64 38.742c0 5.791-3.956 9.112-10.94 9.112-1.912 0-4.722-.294-7.362-.727V52.82h2.044l.851 2.68c1.913 6.17 3.275 8.214 5.706 8.214 2.555 0 4.382-2.253 4.382-5.234 0-2.423-1.145-4.127-3.615-5.45l-4.258-2.3c-3.283-1.742-5.072-4.467-5.072-7.789 0-5.024 4.127-8.044 10.901-8.044 1.533 0 3.322.132 6.171.511v9.237h-2.044l-1.146-3.53c-1.153-3.748-2.384-5.11-4.637-5.11-2.517 0-4.003 1.617-4.003 3.956 0 2.082 1.154 3.576 3.406 4.854l4.297 2.423c3.616 2.044 5.32 4.77 5.32 8.517Zm18.822 6.69.851 1.277v.642h-6.51l-.303-2.47c-.681 1.874-2.47 2.981-4.769 2.981-3.407 0-5.536-2.129-5.536-5.62 0-3.407 1.913-5.66 7.789-7.96l2.508-.975v-3.19c0-2.81-.51-3.956-2.082-3.956-1.278 0-1.998.68-3.236 3.786l-1.402 3.476H26.72v-6.945c2.508-.766 5.025-1.277 7.193-1.277 4.807 0 7.409 2.299 7.409 6.472v13.758Zm2.462-41.43c0 7.24-3.871 11.327-8.857 11.327-4.979 0-8.85-4.088-8.85-11.327S29.948 9.69 34.934 9.69c4.979 0 8.85 4.088 8.85 11.327ZM35.36 58.868v-7.363l-.805.341c-2.516 1.022-3.453 3.321-3.453 6.682 0 2.516.596 3.956 1.997 3.956 1.402 0 2.261-1.363 2.261-3.616Zm2.168-37.852c0-8.176-.681-10.343-2.594-10.343-1.912 0-2.593 2.167-2.593 10.343s.681 10.344 2.593 10.344c1.913 0 2.594-2.168 2.594-10.344Zm21.377 38.061.766.387c-1.363 3.918-3.105 5.404-6.472 5.404-5.49 0-8.556-4.126-8.556-11.326 0-7.193 3.577-11.327 9.407-11.327 1.572 0 3.662.255 5.45.975v7.24h-1.997l-.805-2.726c-1.069-3.616-1.657-4.553-2.725-4.553-1.704 0-3.066 2.215-3.066 10.646 0 6.767 1.022 9.236 3.615 9.236 1.742.008 3.229-1.099 4.383-3.956Zm-4.731-27.245h-7.665v-.635l.852-1.277V6.159l-.852-1.278V4.24l6.813-.511v26.184l.852 1.278v.642Zm10.475.511c-4.684 0-7.494-4.258-7.494-11.536 0-7.239 2.934-11.11 7.448-11.11 2.3 0 3.577.89 4.127 2.679V6.159l-.852-1.278V4.24l6.813-.511v26.184l.852 1.278v.634h-6.047l-.465-3.236c-.673 2.772-1.95 3.755-4.382 3.755Zm14.943 30.102.852 1.278v.642h-7.665v-.642l.851-1.278v-15.33c0-1.827-.55-2.934-1.873-2.934-1.58 0-2.726 1.324-2.726 3.918v14.346l.852 1.278v.642h-7.665v-.642l.852-1.278v-23.76l-.852-1.278v-.635l6.813-.511v8.81c.767-1.827 2.509-2.849 4.979-2.849 3.491 0 5.574 2.215 5.574 6.512v13.711h.008Zm-16.174-41.56c0 7.664.682 10.003 2.555 10.003 2.338 0 2.764-3.36 2.764-10.089 0-6.51-.464-9.747-2.725-9.747-1.912 0-2.594 2.3-2.594 9.833Zm42.745 9.027.852 1.278v.634H99.35v-.634l.852-1.278V14.118c0-1.533-.511-2.47-1.703-2.47-1.487 0-2.68 1.324-2.68 3.871v14.393l.852 1.278v.634h-7.665v-.634l.852-1.278V14.118c0-1.533-.51-2.47-1.703-2.47-1.487 0-2.679 1.324-2.679 3.871v14.393l.852 1.278v.634h-7.665v-.634l.852-1.278V12.585l-.852-1.022v-.635l6.132-.728h.51l.171 2.385c.72-1.874 2.508-2.896 4.94-2.896 2.593 0 4.297 1.278 5.063 3.577.635-2.214 2.64-3.577 5.195-3.577 3.36 0 5.489 2.215 5.489 6.512v13.711Zm-7.959 28.19c0 3.7-2.384 6.767-8.13 6.767-1.486 0-3.49-.17-6.596-.728v-7.913h1.743l.55 1.703c1.362 4.344 2.678 5.962 4.768 5.962 1.96 0 3.237-1.41 3.237-3.577 0-1.788-.898-3.02-3.02-4.173l-3.662-1.959c-2.338-1.277-3.615-3.275-3.615-5.745 0-3.87 3.027-6.217 8.044-6.217 1.448 0 3.321.21 5.365.635v6.217h-1.742l-.898-2.26c-1.022-2.726-1.998-3.616-3.616-3.616-1.742 0-2.764 1.022-2.764 2.725 0 1.448.852 2.423 2.935 3.616l3.615 2.044c2.462 1.409 3.786 3.406 3.786 6.519Zm27.547-28.19.852 1.278v.634h-6.511l-.295-2.47c-.681 1.874-2.469 2.981-4.769 2.981-3.406 0-5.535-2.129-5.535-5.62 0-3.407 1.912-5.66 7.788-7.96l2.509-.975v-3.19c0-2.81-.511-3.956-2.083-3.956-1.277 0-1.997.681-3.236 3.786l-1.402 3.492h-1.92v-6.937c2.517-.767 5.025-1.278 7.193-1.278 4.808 0 7.409 2.3 7.409 6.473v13.742Zm-5.961-3.577v-7.363l-.805.34c-2.509 1.023-3.446 3.322-3.446 6.682 0 2.517.596 3.965 1.998 3.965 1.401 0 2.253-1.363 2.253-3.624Zm27.841 4.855v.634h-7.665v-.634l.852-1.278v-15.33c0-1.835-.55-2.934-1.874-2.934-1.579 0-2.725 1.324-2.725 3.918v14.346l.851 1.278v.634h-7.664v-.634l.851-1.278V12.585l-.851-1.022v-.635l6.132-.728h.511l.17 2.385c.72-1.874 2.47-2.896 4.978-2.896 3.492 0 5.575 2.215 5.575 6.512v13.711l.859 1.278Z"></path></svg>