<svg xml:space="preserve" style="enable-background:new 0 0 337.3 75.6;" viewBox="0 0 337.3 75.6" y="0px" x="0px" xmlns:xlink="http://www.w3.org/1999/xlink" xmlns="http://www.w3.org/2000/svg" id="Layer_1" version="1.1">
<g>
	<path d="M28.5,27.5c0,3.3-1.4,6.2-3.7,8.5c-2.5,2.5-6.2,3.2-6.2,5.3c0,2.9,4.7,2,9.2,6.5c3,3,4.8,6.9,4.8,11.5
		c0,9-7.2,16.2-16.3,16.2S0,68.4,0,59.4c0-4.6,1.8-8.5,4.8-11.5c4.5-4.5,9.2-3.6,9.2-6.5c0-2.2-3.7-2.8-6.2-5.3
		c-2.3-2.3-3.7-5.2-3.7-8.6c0-6.6,5.4-11.9,12-11.9c1.3,0,2.4,0.2,3.4,0.2c1.7,0,2.6-0.8,2.6-2c0-0.7-0.3-1.6-0.3-2.5
		c0-2.2,1.8-3.9,4.1-3.9s4,1.8,4,4.1c0,2.4-1.8,3.4-3.2,3.9c-1.1,0.4-2,0.9-2,2C24.6,19.4,28.5,21.5,28.5,27.5z M27.3,59.4
		c0-6.3-4.6-11.4-10.9-11.4S5.4,53.1,5.4,59.4c0,6.2,4.6,11.4,10.9,11.4S27.3,65.6,27.3,59.4z M23.5,27.4c0-4-3.2-7.3-7.2-7.3
		s-7.2,3.3-7.2,7.3s3.2,7.3,7.2,7.3S23.5,31.4,23.5,27.4z"></path>
	<path d="M51.4,16.1c2,0,3.6,1.5,3.6,3.4c0,1.9-1.5,3.4-3.5,3.4c-2.1,0-3.2-1.3-5.3-1.3c-2,0-3.6,1.5-3.6,3.9v20
		c0,1.5-1.2,2.7-2.7,2.7c-1.5,0-2.7-1.2-2.7-2.7V18.6c0-1.5,1.2-2.7,2.7-2.7c2.7,0,2.2,2.6,5,2.6C47.3,18.5,48.3,16.1,51.4,16.1z"></path>
	<path d="M57.3,32.1c0-9.6,6.6-16.5,15.7-16.5c8.3,0,14.9,6.1,14.9,14.4c0,2-1.3,3.3-3.1,3.3H64.2c-0.9,0-1.2,0.3-1.2,1
		c0,1.6,1.3,4.5,3.2,6.4c1.9,1.9,4.5,3,8.2,3c2.7,0,5.1-1,7-2.4c0.6-0.4,1.2-0.7,1.8-0.7c1.3,0,2.4,1.2,2.4,2.5c0,0.8-0.3,1.4-0.9,2
		c-2.7,2.2-6.4,3.4-10.5,3.4C64.4,48.6,57.3,41.5,57.3,32.1z M79.8,22.9c-1.8-1.8-4.1-2.7-6.8-2.7c-2.7,0-5.3,1.1-7.1,2.9
		c-1.5,1.5-2.5,3.4-2.5,4.6c0,0.6,0.4,0.9,1.2,0.9h16.5c0.8,0,1.1-0.3,1.1-0.9C82.3,26.3,81.1,24.2,79.8,22.9z"></path>
	<path d="M93.4,32.1c0-9.6,6.6-16.5,15.7-16.5c8.3,0,14.9,6.1,14.9,14.4c0,2-1.3,3.3-3.1,3.3h-20.6c-0.9,0-1.2,0.3-1.2,1
		c0,1.6,1.3,4.5,3.2,6.4c1.9,1.9,4.5,3,8.2,3c2.7,0,5.1-1,7-2.4c0.6-0.4,1.2-0.7,1.8-0.7c1.3,0,2.4,1.2,2.4,2.5c0,0.8-0.3,1.4-0.9,2
		c-2.7,2.2-6.4,3.4-10.5,3.4C100.5,48.6,93.4,41.5,93.4,32.1z M115.9,22.9c-1.8-1.8-4.1-2.7-6.8-2.7c-2.7,0-5.3,1.1-7.1,2.9
		c-1.5,1.5-2.5,3.4-2.5,4.6c0,0.6,0.4,0.9,1.2,0.9h16.5c0.8,0,1.1-0.3,1.1-0.9C118.4,26.3,117.2,24.2,115.9,22.9z"></path>
	<path d="M155.9,48.3c-1.5,0-2.7-1.2-2.7-2.7V28.3c0-4.5-3.6-7.9-8.1-7.9c-4.6,0-8.2,3.5-8.2,7.9v17.3c0,1.5-1.2,2.7-2.7,2.7
		c-1.5,0-2.7-1.2-2.7-2.7v-27c0-1.5,1.2-2.7,2.6-2.7c2.7,0,2.5,2.4,3.9,2.4s3.3-2.7,8.3-2.7c6.9,0,12.3,5.8,12.3,12.7v17.3
		C158.5,47.1,157.3,48.3,155.9,48.3z"></path>
	<path d="M192.3,48.3c-1.5,0-2.7-1.2-2.7-2.7V28.3c0-4.5-3.6-7.9-8.1-7.9c-4.6,0-8.2,3.5-8.2,7.9v17.3c0,1.5-1.2,2.7-2.7,2.7
		c-1.5,0-2.7-1.2-2.7-2.7V2.7c0-1.5,1.2-2.7,2.7-2.7c1.5,0,2.7,1.2,2.7,2.7v14c0,0.8,0.3,1.2,1.1,1.2c1.4,0,3.3-2.4,8.3-2.4
		c6.9,0,12.3,5.8,12.3,12.7v17.3C195,47.1,193.8,48.3,192.3,48.3z"></path>
	<path d="M202.4,32.1c0-9.2,7.4-16.5,16.6-16.5c9.3,0,16.6,7.3,16.6,16.5s-7.4,16.5-16.6,16.5C209.8,48.6,202.4,41.3,202.4,32.1z
		 M230.3,32.1c0-6.4-4.8-11.7-11.2-11.7c-6.4,0-11.2,5.3-11.2,11.7s4.8,11.7,11.2,11.7C225.6,43.8,230.3,38.5,230.3,32.1z"></path>
	<path d="M245.8,15.9c1.5,0,2.7,1.2,2.7,2.7v17.3c0,4.5,3.6,7.9,8.1,7.9c4.6,0,8.2-3.5,8.2-7.9V18.6c0-1.5,1.2-2.7,2.7-2.7
		c1.5,0,2.7,1.2,2.7,2.7v27c0,1.5-1.2,2.7-2.6,2.7c-2.7,0-2.5-2.4-3.9-2.4c-1.4,0-3.3,2.7-8.3,2.7c-6.9,0-12.3-5.8-12.3-12.7V18.6
		C243.2,17.1,244.4,15.9,245.8,15.9z"></path>
	<path d="M279.9,46.3c-1.2-0.8-2-1.5-2-3c0-1.4,1.1-2.5,2.4-2.5c1.6,0,2.3,1,3.6,1.7c1.7,1,3.6,1.5,5.9,1.5c4.3,0,6.5-2,6.5-4.4
		c0-3.4-3.2-4.1-7.5-5.2c-5.3-1.4-10.5-3-10.5-9.1c0-5.5,4.2-9.6,11.6-9.6c2.9,0,5.7,0.8,7.8,2.1c0.8,0.4,1.5,1.4,1.5,2.5
		c0,1.4-1.1,2.6-2.6,2.6c-1,0-1.7-0.6-2.7-1.3s-2.4-1.2-4.3-1.2c-4.3,0-6.1,1.8-6.1,4.3c0,3.2,3.1,4,7.6,5.1
		c5.2,1.3,10.4,2.9,10.4,9.2c0,5.5-4.1,9.7-11.9,9.7C285.9,48.6,282.4,47.8,279.9,46.3z"></path>
	<path d="M306.6,32.1c0-9.6,6.6-16.5,15.7-16.5c8.3,0,14.9,6.1,14.9,14.4c0,2-1.3,3.3-3.1,3.3h-20.6c-0.9,0-1.2,0.3-1.2,1
		c0,1.6,1.3,4.5,3.2,6.4c1.9,1.9,4.5,3,8.2,3c2.7,0,5.1-1,7-2.4c0.6-0.4,1.2-0.7,1.8-0.7c1.3,0,2.4,1.2,2.4,2.5c0,0.8-0.3,1.4-0.9,2
		c-2.7,2.2-6.4,3.4-10.5,3.4C313.7,48.6,306.6,41.5,306.6,32.1z M329.1,22.9c-1.8-1.8-4.1-2.7-6.8-2.7c-2.7,0-5.3,1.1-7.1,2.9
		c-1.5,1.5-2.5,3.4-2.5,4.6c0,0.6,0.4,0.9,1.2,0.9h16.5c0.8,0,1.1-0.3,1.1-0.9C331.6,26.3,330.4,24.2,329.1,22.9z"></path>
</g>
</svg>
