<svg viewBox="0 0 120 32" xmlns="http://www.w3.org/2000/svg"><path d="M16.5 29.937c-1.805.313-3.642.407-5.542.657l-5.796-16.75v17.469C3.357 31.5 1.71 31.75 0 32V0h4.814l6.587 18.157V0h5.1zm9.977-18.218c1.963 0 4.972-.094 6.777-.094v5c-2.249 0-4.877 0-6.777.094v7.437c2.977-.187 5.954-.437 8.962-.531v4.812l-14.03 1.094V0h14.03v5h-8.962zM54.283 5h-5.257v23c-1.71 0-3.42 0-5.067.062V5h-5.257V0h15.582zm8.235 6.375h6.936v5h-6.936v11.344h-4.973V0h14.157v5h-9.184zm17.418 11.969c2.883.062 5.796.281 8.615.437v4.938c-4.529-.282-9.058-.563-13.682-.657V0h5.067zm12.89 5.719c1.616.093 3.326.187 4.973.374V0h-4.973zM120 0l-6.429 15.219L120 32c-1.9-.25-3.801-.594-5.701-.906l-3.642-9.25-3.705 8.5c-1.837-.313-3.611-.407-5.447-.657l6.524-14.656L102.138 0h5.447l3.325 8.406L114.458 0z"></path></svg>