<svg viewBox="0 0 186 21" xmlns="http://www.w3.org/2000/svg" fill="none"><g clip-path="url(#a)"><path fill="#000" d="M0 1.037a5.275 5.275 0 0 0 3.807 3.807h5.982l.272.054v15.01h3.699V4.954l.38-.164h5.983A5.33 5.33 0 0 0 23.93.982H0v.055Zm129.765 0h-3.698v18.926h16.968a5.27 5.27 0 0 0 3.263-3.698h-16.479V.982l-.054.055Zm-28.444 3.698c1.958-.544 3.59-2.067 4.025-3.753l-20.721.055V12.24h16.914v3.916h-13.27a7.398 7.398 0 0 0-4.732 3.807h21.7V8.543H88.268V4.734h13.053Zm63.197 15.228h3.643V12.35h13.379v7.614h3.644V8.543h-20.666v11.42ZM46.391 4.79h14.14A5.222 5.222 0 0 0 64.394.982H42.584a5.22 5.22 0 0 0 3.807 3.807Zm0 7.506h14.14a5.22 5.22 0 0 0 3.862-3.807H42.584a5.221 5.221 0 0 0 3.807 3.807Zm0 7.668h14.14a5.223 5.223 0 0 0 3.862-3.807H42.584a5.22 5.22 0 0 0 3.807 3.807ZM167.781 4.79h14.14a5.22 5.22 0 0 0 3.807-3.807h-21.754a5.22 5.22 0 0 0 3.807 3.807Z"></path></g><defs><clipPath id="a"><path d="M0 0h186v19.035H0z" transform="translate(0 .982)" fill="#fff"></path></clipPath></defs></svg>