<svg viewBox="0 0 57 74" xmlns="http://www.w3.org/2000/svg" fill="none"><g clip-path="url(#a)"><path fill="#000" d="M42.855 31.642c-1.591 0-3.037.611-7.492 3.808v17.204c7.722-8.677 9.922-14.614 9.922-17.66-.009-2.132-.991-3.352-2.43-3.352Zm.607-11.418c0-3.055-3.482-5.559-8.1-5.862v15.91c5.826-3.425 8.1-6.859 8.1-10.048Zm13.711-6.751c-.075-.306-.152-.42-.305-.456l-5.458-1.45-.757-3.122c-.04-.153-.078-.267-.228-.303L44.82 6.619l-.681-2.97a.417.417 0 0 0-.304-.382L29.282.554a1.95 1.95 0 0 0-.72 0L14.004 3.267a.417.417 0 0 0-.303.381l-.684 2.97L7.415 8.14c-.153.036-.19.15-.228.303l-.757 3.123-5.445 1.448c-.15.04-.228.153-.303.456A39.32 39.32 0 0 0 0 20.858C0 42.79 11.361 61.828 28.325 73.174a.756.756 0 0 0 1.215 0C46.503 61.83 57.867 42.79 57.867 20.86a39.488 39.488 0 0 0-.694-7.387Zm-30.376 49.61c0 .155-.153.228-.303.078-4.166-4.797-6.966-10.66-8.86-17.055l-2.878 1.833c-.757.534-1.36.306-1.824-.53-3.86-6.855-6.359-18.125-6.584-26.038a1.375 1.375 0 0 1 .378-.99 35.99 35.99 0 0 1 3.329-3.502c.228-.228.456-.078.456.303 0 9.745 1.664 18.803 4.316 24.745.228.456.456.456.76.228l.831-.534c-1.591-7.081-2.498-16.52-2.273-27.407 0-.383.078-.534.303-.684a26.514 26.514 0 0 1 3.635-1.906c.378-.153.456-.076.456.227-.217 15.835 1.076 26.795 3.873 35.55.076.228.302.15.302-.077-.153-3.197-.153-6.013-.153-9.44l-.148-27.332c0-.303.075-.456.378-.531a29.52 29.52 0 0 1 3.785-.687.203.203 0 0 1 .228.228l-.007 53.523v-.002Zm4.544.078c-.153.152-.303.077-.303-.076V9.567a.206.206 0 0 1 .226-.228c10.146.684 16.657 4.948 16.657 11.115 0 2.555-.944 5.02-2.65 6.922 3.33.914 4.62 3.43 4.62 6.778.005 5.94-4.31 15.762-18.545 29.009h-.005v-.002Z"></path></g><defs><clipPath id="a"><path d="M0 0h57v72.96H0z" transform="translate(0 .52)" fill="#fff"></path></clipPath></defs></svg>